<?xml version="1.0" standalone="no"?>
<!DOCTYPE svg PUBLIC "-//W3C//DTD SVG 20010904//EN"
 "http://www.w3.org/TR/2001/REC-SVG-20010904/DTD/svg10.dtd">
<svg version="1.0" xmlns="http://www.w3.org/2000/svg"
 width="765.000000pt" height="765.000000pt" viewBox="0 0 765.000000 765.000000"
 preserveAspectRatio="xMidYMid meet">
<metadata>
Created by potrace 1.14, written by Peter Selinger 2001-2017
</metadata>
<g transform="translate(0.000000,765.000000) scale(0.100000,-0.100000)"
fill="#000000" stroke="none">
<path d="M3765 7480 c-22 -9 -80 -37 -130 -60 -49 -23 -110 -51 -135 -62 -25
-11 -79 -36 -120 -55 -41 -19 -113 -52 -160 -73 -111 -49 -177 -80 -327 -151
-68 -32 -126 -58 -128 -59 -3 0 -48 -20 -101 -45 -53 -25 -97 -45 -99 -45 -2
0 -45 -20 -97 -44 -234 -109 -270 -126 -274 -126 -3 0 -41 -18 -87 -39 -141
-67 -258 -121 -262 -121 -2 0 -60 -27 -130 -60 -70 -33 -128 -60 -130 -60 -2
0 -42 -18 -89 -40 -64 -30 -87 -46 -90 -63 -3 -12 -5 -508 -4 -1102 0 -932 2
-1083 15 -1103 13 -21 65 -49 258 -137 22 -10 91 -42 154 -72 62 -29 115 -53
117 -53 3 0 57 -25 120 -55 64 -30 117 -55 119 -55 2 0 45 -20 97 -44 51 -24
116 -53 143 -66 28 -12 86 -39 130 -60 44 -21 107 -50 140 -65 56 -26 338
-155 485 -223 36 -16 85 -39 110 -50 25 -11 86 -39 135 -62 50 -23 110 -51
135 -62 68 -31 136 -62 235 -108 50 -23 115 -53 145 -67 30 -14 84 -39 120
-55 36 -17 117 -54 180 -83 206 -94 295 -135 310 -144 13 -7 15 -56 15 -340 0
-213 -3 -335 -10 -341 -5 -4 -55 -28 -110 -53 -162 -73 -216 -97 -300 -137
-44 -20 -133 -61 -198 -90 l-117 -53 -118 53 c-64 29 -153 70 -197 91 -44 21
-179 82 -300 137 -121 55 -245 111 -275 125 -537 246 -674 307 -690 307 -11 0
-43 -11 -72 -24 -29 -13 -98 -44 -153 -69 -55 -25 -131 -59 -170 -77 -38 -18
-113 -51 -165 -75 -206 -93 -265 -124 -276 -141 -7 -13 -11 -137 -11 -379 0
-407 -2 -398 76 -433 60 -27 398 -181 481 -220 36 -16 151 -69 255 -117 105
-48 219 -101 255 -117 36 -17 110 -50 165 -75 55 -25 129 -59 165 -75 36 -17
88 -41 115 -53 28 -13 138 -63 245 -113 296 -136 303 -139 488 -223 l173 -79
47 21 c26 12 76 35 112 51 59 27 798 364 895 408 22 10 81 37 130 60 50 23
135 62 190 87 55 24 123 55 150 68 192 89 472 217 480 219 6 2 42 18 80 36
153 72 222 103 264 122 83 35 76 -69 77 1163 l0 1100 -20 18 c-12 10 -59 35
-106 56 -122 55 -171 77 -298 137 -62 30 -115 54 -117 54 -1 0 -43 19 -92 42
-48 23 -90 42 -93 43 -3 0 -30 13 -60 27 -30 14 -167 77 -305 141 -137 63
-284 131 -325 150 -41 19 -124 57 -185 85 -60 27 -137 63 -170 78 -33 15 -62
29 -65 29 -3 1 -32 14 -65 30 -85 40 -332 154 -385 178 -25 11 -48 20 -52 19
-5 -1 -8 2 -8 8 0 5 -7 10 -15 10 -8 0 -29 8 -47 18 -18 10 -60 30 -93 44 -33
15 -96 44 -140 64 -44 21 -82 39 -85 39 -3 1 -50 22 -104 48 -54 26 -100 47
-102 47 -2 0 -54 24 -116 53 l-113 54 0 329 0 329 45 22 c52 26 289 139 370
176 30 14 107 50 170 80 63 30 125 57 136 61 15 5 58 -10 140 -48 66 -29 142
-64 169 -76 28 -12 97 -44 153 -71 57 -27 105 -49 107 -49 1 0 49 -22 106 -49
57 -26 136 -62 174 -79 39 -17 115 -52 170 -77 55 -26 143 -66 195 -90 52 -23
129 -58 170 -77 41 -19 107 -49 146 -67 l70 -32 90 39 c49 22 123 55 164 75
41 19 102 47 135 62 60 27 223 101 343 156 34 16 66 29 70 29 4 0 14 10 22 23
12 18 15 84 16 394 1 329 -1 375 -15 387 -9 7 -185 91 -391 186 -397 182 -482
221 -570 263 -30 14 -170 78 -310 142 -140 65 -292 135 -338 156 -46 21 -85
39 -86 39 -2 0 -61 27 -130 60 -70 33 -128 60 -130 60 -3 0 -90 40 -291 135
-155 73 -158 74 -220 45z m142 -116 c43 -20 116 -53 163 -74 47 -21 129 -58
183 -84 55 -25 101 -46 103 -46 2 0 60 -27 130 -60 69 -33 128 -60 129 -60 2
0 51 -22 110 -50 59 -27 108 -50 110 -50 2 0 52 -23 112 -51 59 -28 182 -85
273 -126 91 -42 207 -95 258 -119 52 -24 95 -44 97 -44 3 0 140 -63 378 -174
55 -25 103 -46 107 -46 5 0 12 -5 15 -10 4 -6 -11 -17 -32 -26 -21 -9 -71 -31
-111 -50 -41 -19 -77 -34 -80 -34 -4 0 -20 -7 -35 -15 -25 -13 -153 -71 -242
-110 -16 -7 -60 -27 -97 -44 -76 -35 -63 -37 -210 33 -53 25 -99 46 -101 46
-3 0 -49 21 -103 46 -217 101 -210 98 -599 274 -82 37 -184 83 -225 103 -296
138 -405 184 -420 179 -13 -4 -300 -132 -490 -219 -30 -14 -179 -81 -330 -150
-151 -69 -308 -140 -348 -159 -41 -19 -76 -34 -78 -34 -3 0 -37 -15 -77 -34
-40 -19 -94 -44 -122 -56 -27 -12 -67 -31 -89 -41 l-39 -20 -161 72 c-88 40
-186 83 -216 97 -30 13 -68 30 -85 37 -166 74 -202 91 -206 98 -2 4 41 28 96
53 55 25 129 59 165 76 36 17 236 109 445 205 209 97 407 188 440 203 33 15
175 80 315 145 140 64 269 123 285 131 386 180 482 223 492 223 7 1 48 -15 90
-35z m-132 -1020 l0 -307 -120 -56 c-67 -31 -161 -75 -210 -97 -214 -99 -362
-168 -394 -183 -63 -30 -62 -24 -62 -408 l0 -349 -32 -14 c-18 -7 -79 -36
-137 -63 -58 -27 -123 -57 -145 -67 -22 -10 -119 -55 -214 -99 -96 -45 -175
-81 -175 -81 -1 0 2 1344 3 1351 1 3 34 21 74 39 39 18 115 53 167 78 52 24
104 48 115 52 17 7 458 209 698 319 171 79 208 96 302 138 55 25 104 49 109
53 5 5 12 7 16 5 3 -2 6 -142 5 -311z m287 227 c95 -43 202 -92 238 -108 94
-44 163 -75 355 -163 94 -43 199 -91 235 -108 36 -16 117 -53 180 -82 63 -29
143 -65 178 -82 35 -16 74 -33 88 -38 13 -5 24 -17 25 -27 5 -75 3 -587 -2
-595 -4 -6 -19 -3 -40 8 -19 10 -36 19 -39 19 -8 3 -71 31 -175 80 -53 25 -98
45 -100 45 -1 0 -55 25 -119 55 -64 30 -118 55 -120 55 -2 0 -61 27 -131 60
-70 33 -128 60 -130 60 -1 0 -51 23 -109 50 -58 28 -108 50 -110 50 -2 0 -42
18 -88 39 -45 22 -137 64 -203 94 l-120 55 -1 306 c0 168 3 306 7 306 4 0 86
-35 181 -79z m-2287 -406 c52 -24 155 -71 240 -110 28 -13 78 -36 112 -51 l63
-28 2 -725 3 -726 40 -20 c74 -38 353 -165 363 -165 5 0 15 -6 21 -14 7 -8 22
-17 35 -20 13 -3 61 -23 107 -45 259 -120 290 -134 298 -131 2 1 7 -2 10 -7 3
-5 31 -20 61 -32 30 -13 96 -43 145 -66 50 -24 142 -66 205 -95 63 -29 147
-67 185 -85 39 -18 95 -44 125 -58 79 -36 186 -85 255 -117 69 -32 176 -82
255 -118 30 -13 93 -43 140 -65 47 -22 87 -41 90 -42 10 -3 147 -65 285 -129
39 -18 93 -43 120 -56 55 -25 162 -74 240 -111 28 -13 52 -23 55 -24 12 -2
125 -60 130 -66 6 -9 6 -1327 0 -1332 -3 -3 -32 8 -65 24 -33 15 -91 42 -130
60 -38 17 -101 46 -140 64 -164 77 -244 114 -302 140 l-62 27 0 350 c1 293 -2
352 -14 371 -9 13 -77 50 -169 91 -84 39 -199 92 -256 118 -57 26 -105 48
-107 48 -2 0 -53 23 -112 51 -59 28 -151 70 -203 94 -145 66 -270 123 -410
188 -41 19 -97 45 -125 57 -27 13 -135 62 -240 110 -104 48 -212 97 -240 110
-27 12 -76 35 -107 51 -32 15 -58 25 -58 22 0 -3 -6 -1 -12 5 -7 5 -65 33
-128 62 -63 29 -144 66 -180 82 -36 17 -141 65 -235 108 -93 43 -201 92 -240
110 -38 18 -97 45 -130 60 -33 15 -90 42 -127 59 l-68 31 0 1034 0 1035 113
-51 c61 -27 135 -61 162 -73z m4375 -185 l0 -310 -62 -29 c-35 -15 -84 -38
-110 -50 -27 -11 -69 -31 -95 -42 -27 -12 -79 -36 -118 -54 -224 -104 -255
-118 -267 -119 -3 -1 -10 -4 -14 -8 -4 -5 -11 -8 -16 -8 -4 0 -8 139 -8 308
l0 309 38 16 c45 18 263 117 347 157 33 15 107 49 165 75 58 26 109 51 115 56
5 5 13 9 17 9 4 0 8 -140 8 -310z m-2961 -1191 c160 -74 231 -106 349 -160 37
-17 141 -65 232 -106 91 -41 192 -88 225 -103 33 -15 80 -37 105 -48 25 -11
86 -39 135 -62 50 -23 128 -59 175 -80 47 -21 129 -58 183 -84 55 -25 100 -46
102 -46 2 0 41 -18 87 -39 45 -22 216 -100 378 -174 162 -74 329 -151 370
-170 41 -19 113 -51 160 -72 94 -42 242 -110 335 -154 l60 -29 -55 -25 c-30
-13 -90 -41 -133 -61 -43 -20 -80 -36 -82 -36 -3 0 -35 -14 -72 -31 -38 -17
-84 -38 -103 -46 -19 -9 -69 -31 -110 -50 -117 -55 -120 -55 -154 -39 -17 8
-103 47 -191 86 -88 40 -180 82 -205 93 -25 11 -47 21 -50 22 -3 1 -22 9 -42
19 -21 9 -41 16 -45 17 -5 0 -16 8 -27 17 -10 9 -20 16 -22 15 -5 -3 -56 19
-142 59 -37 17 -69 32 -72 33 -8 2 -69 30 -145 66 -38 18 -72 34 -75 34 -5 2
-25 11 -175 80 -44 20 -100 46 -125 57 -186 85 -297 136 -374 170 -49 21 -117
52 -150 68 -34 16 -142 65 -241 111 -99 45 -209 95 -245 112 -36 16 -69 31
-75 33 -9 2 -137 61 -383 175 -37 17 -104 47 -150 67 l-82 35 57 28 c91 43
272 129 338 159 33 15 107 50 165 78 58 28 107 51 109 51 2 1 74 -31 160 -70z
m2961 -2441 l-1 -1043 -307 -139 c-169 -77 -358 -164 -421 -193 -62 -29 -115
-53 -116 -53 -3 0 -84 -37 -225 -102 -36 -17 -162 -74 -280 -128 -118 -54
-374 -170 -568 -259 -195 -89 -355 -161 -356 -161 -1 0 -3 139 -2 310 l0 309
48 21 c26 11 89 40 140 64 51 24 118 55 148 69 30 14 96 44 145 67 50 23 110
51 135 62 25 11 92 43 150 71 58 27 111 50 118 50 6 0 12 4 12 9 0 4 4 8 9 8
5 0 58 23 118 51 59 28 114 52 121 52 6 0 12 3 12 6 0 3 15 12 33 20 38 16
107 47 245 113 57 26 107 48 112 48 5 0 16 10 24 22 14 20 16 106 16 731 l0
708 148 71 c212 101 277 131 279 130 2 -1 33 14 70 33 38 19 74 35 81 35 6 0
12 5 12 10 0 6 6 10 13 10 7 0 28 9 47 19 19 11 36 20 38 20 1 1 2 -468 2
-1041z m-3805 -78 c39 -18 115 -52 170 -77 55 -25 104 -50 110 -54 5 -5 17 -9
27 -9 10 0 18 -5 18 -12 0 -6 3 -9 6 -6 3 3 49 -14 102 -39 53 -25 120 -55
147 -68 28 -13 77 -35 110 -50 33 -15 112 -51 175 -80 63 -29 194 -89 290
-133 96 -44 205 -94 243 -111 37 -17 77 -31 89 -31 12 0 49 13 82 29 34 15 77
35 96 44 19 8 71 32 115 52 44 21 114 52 155 70 41 18 100 44 130 58 30 14 90
41 132 60 l77 36 196 -90 c108 -49 201 -89 206 -89 5 0 9 -5 9 -10 0 -6 3 -9
8 -8 4 1 28 -8 54 -19 26 -12 76 -34 110 -49 35 -15 67 -31 72 -35 10 -9 -25
-26 -394 -194 -129 -59 -286 -132 -349 -161 -62 -30 -115 -54 -116 -54 -2 0
-56 -25 -120 -55 -65 -30 -118 -55 -120 -55 -2 0 -45 -20 -97 -44 -51 -24
-128 -60 -170 -79 l-78 -36 -137 63 c-76 35 -160 73 -188 86 -87 39 -857 391
-925 422 -36 16 -83 37 -105 46 -22 8 -48 22 -59 31 -10 9 -20 15 -22 13 -5
-3 -31 8 -189 80 -66 30 -142 65 -170 78 -27 12 -77 35 -110 50 -33 16 -121
56 -195 90 -74 33 -138 64 -143 69 -4 4 12 16 35 26 24 10 97 44 163 75 66 31
167 79 224 106 58 27 134 63 170 80 41 19 72 28 81 24 8 -5 47 -22 85 -40z
m-789 -369 c21 -10 138 -64 259 -119 121 -55 249 -113 285 -130 78 -36 262
-120 420 -192 63 -29 140 -63 170 -77 68 -31 253 -115 340 -155 36 -17 135
-62 219 -100 85 -39 162 -74 170 -79 9 -4 43 -20 76 -35 33 -14 88 -39 121
-54 34 -16 84 -38 111 -50 l49 -21 0 -309 c0 -171 -1 -310 -3 -310 -3 0 -236
106 -331 151 -46 21 -85 39 -87 39 -2 0 -47 21 -102 46 -54 25 -141 65 -193
89 -52 24 -126 57 -165 75 -38 18 -169 77 -290 132 -310 141 -306 139 -450
206 -181 83 -253 116 -467 212 l-187 85 -1 308 c0 169 4 307 8 307 5 0 26 -9
48 -19z"/>
</g>
</svg>
